<svg version="1.1" id="trending-logo" xmlns="http://www.w3.org/2000/svg" xmlns:xlink="http://www.w3.org/1999/xlink" x="0px" y="0px"
	 viewBox="0 0 266.423 83.308"  xml:space="preserve">
<style type="text/css">
	.st0 {
	fill-rule:evenodd;
	clip-rule:evenodd;
	fill: #FFD0CF;
	}
</style>
<path class="st0" d="M40.616,9.088c5.365-3.065,17.275-5.585,13.382,4.194c-1.502,3.772-2.401,6.807-3.227,10.786
	c5.649,1.578,10.35,1.911,7.327,9.387c-2.277,5.631-6.541,6.167-11.723,6.542c-1.626,5.31-6.152,23.86-1.889,27.578
	c3.285,2.866,14.825-0.851,2.848,6.255c-11.734,6.961-26.122,1.835-25.295-13.827c0.37-7.012,1.984-12.754,3.327-19.427
	c-8.823-0.637-2.654-13.048,4.456-15.949c3.246-1.324,1.345-0.349,3.372-4.54C35.19,15.958,37.199,12.167,40.616,9.088
	 M67.52,62.066l-0.113,0.556c0,0.311-0.038,0.763-0.113,1.348c-0.075,0.905-0.179,1.64-0.302,2.215
	c-0.132,0.566-0.321,1.037-0.585,1.414c-0.255,0.377-0.603,0.782-1.046,1.206c-1.339,1.235-2.696,1.848-4.053,1.848
	c-1.112,0-1.923-0.405-2.451-1.216c-0.518-0.811-0.782-2.112-0.782-3.921c0-1.433,0.16-3.205,0.481-5.316
	c0.321-2.102,0.717-3.996,1.178-5.674l0.217-0.716c0-0.103,0.056-0.339,0.17-0.688c0.679-2.507,1.31-4.355,1.876-5.561
	c0.575-1.207,1.263-2.178,2.074-2.913c0.717-0.575,1.527-0.858,2.432-0.858c1.31,0,2.102,0.792,2.375,2.375
	c0.255-0.217,0.509-0.481,0.745-0.773c0.528-0.641,0.943-1.075,1.235-1.282c0.302-0.217,0.641-0.32,1.027-0.32
	c1.574,0,2.366,1.565,2.366,4.694c0,1.706-0.189,3.365-0.556,4.968c-0.368,1.603-0.83,2.913-1.386,3.921
	c-0.565,1.009-1.122,1.518-1.668,1.518c-0.613,0-0.914-1.15-0.914-3.45c0-1.216-0.066-2.168-0.207-2.856
	c-0.132-0.688-0.349-1.225-0.641-1.612c-0.556,1.027-0.914,3.384-1.084,7.07C67.661,60.172,67.576,61.52,67.52,62.066z
	 M251.465,71.672c1.084-0.057,2.073-0.584,2.96-1.584c0.896-1.009,1.339-2.102,1.339-3.271c0-0.811-0.264-1.461-0.792-1.932
	c-0.575-0.575-1.848-1.141-3.836-1.687c-2.932-0.848-4.836-1.791-5.722-2.847c-0.829-0.848-1.244-1.857-1.244-3.035
	c0-2.112,0.773-4.232,2.309-6.353c1.536-2.112,3.497-3.846,5.891-5.203c2.394-1.348,4.807-2.026,7.23-2.026
	c1.178,0,2.281,0.273,3.318,0.829c1.028,0.556,1.848,1.282,2.451,2.196c0.613,0.914,0.914,1.904,0.914,2.969
	c0,1.046-0.33,2.14-0.99,3.261c-0.669,1.122-1.499,2.055-2.508,2.8c-0.999,0.745-1.951,1.122-2.856,1.122
	c-0.518,0-0.962-0.113-1.339-0.33c-0.377-0.226-0.565-0.462-0.565-0.716c0-0.264,0.075-0.641,0.226-1.141
	c0.415-1.584,0.622-2.96,0.622-4.138c0-1.159-0.349-2.262-1.056-3.29c-0.896,0.622-1.489,1.122-1.763,1.489
	c-0.707,0.81-1.244,1.725-1.631,2.752c-0.424,1.056-0.641,2.045-0.641,2.979c0,0.66,0.151,1.197,0.462,1.584
	c0.302,0.396,0.801,0.735,1.489,1.009c0.688,0.283,1.734,0.585,3.139,0.915c2.338,0.575,3.987,1.122,4.939,1.659
	c0.226,0.132,0.565,0.396,1.027,0.801c0.697,0.754,1.046,1.734,1.046,2.931c0,1.272-0.396,2.555-1.188,3.855
	c-0.792,1.301-2.017,2.639-3.676,4.016c-1.763,1.499-3.525,2.564-5.269,3.205c-1.753,0.65-3.686,0.971-5.807,0.971
	c-2.036,0-3.648-0.405-4.817-1.216c-1.169-0.811-1.753-1.913-1.753-3.318c0-0.999,0.386-2.008,1.159-3.026
	c0.773-1.028,1.734-1.857,2.875-2.498c1.15-0.651,2.281-0.971,3.374-0.971c0.83,0,1.244,0.188,1.244,0.556
	c0,0.179-0.113,0.48-0.349,0.905c-0.707,1.291-1.065,2.479-1.065,3.573C250.617,70.239,250.9,70.974,251.465,71.672z
	 M230.549,62.924l-0.745,0.556c-0.057,0.057-0.141,0.122-0.264,0.217c-0.123,0.094-0.273,0.217-0.452,0.358
	c-3.186,2.488-5.684,4.232-7.494,5.25c-1.819,1.009-3.393,1.518-4.741,1.518c-1.489,0-2.686-0.547-3.6-1.631
	c-0.915-1.084-1.367-2.545-1.367-4.364c0-2.262,0.641-4.609,1.923-7.032c1.273-2.423,2.969-4.647,5.062-6.674
	c2.102-2.026,4.402-3.648,6.909-4.873c2.498-1.225,4.92-1.838,7.258-1.838c2.3,0,4.053,0.396,5.26,1.188
	c1.206,0.792,1.81,1.979,1.81,3.563c0,1.329-0.528,2.969-1.574,4.92c0.754,0.056,1.31,0.292,1.668,0.707
	c0.349,0.415,0.528,1.056,0.528,1.942c0,1.433-0.292,3.44-0.886,6.004c-0.584,2.564-1.31,4.939-2.149,7.107
	c-1.037,2.752-2.507,5.137-4.43,7.164c-1.452,1.527-3.261,2.837-5.42,3.94c-2.149,1.093-4.006,1.64-5.552,1.64
	c-1.291,0-2.441-0.518-3.459-1.546c-1.009-1.037-1.517-2.196-1.517-3.487c0-0.867,0.216-1.763,0.66-2.696
	c0.443-0.924,1.018-1.725,1.716-2.385c1.442-1.461,3.554-2.837,6.344-4.147c0.518-0.255,0.914-0.386,1.188-0.386
	c0.113,0,0.216,0.047,0.302,0.141c0.094,0.085,0.141,0.189,0.141,0.302c0,0.132-0.113,0.377-0.33,0.745
	c-0.556,0.943-1.047,2.14-1.471,3.601c-0.424,1.461-0.632,2.734-0.632,3.799c0,1.254,0.198,1.876,0.584,1.876
	c0.198,0,0.452-0.227,0.754-0.679c0.302-0.452,0.575-0.961,0.82-1.527c1.565-3.977,2.583-7.654,3.045-11.028
	C230.473,64.668,230.511,63.923,230.549,62.924z M231.963,57.023v0.113l-0.113-0.113c-0.104,0.038-0.255,0.056-0.434,0.056
	c-0.358,0.038-0.792,0.057-1.329,0.057c-0.933,0-1.404-0.179-1.404-0.528c0-0.179,0.122-0.405,0.358-0.66
	c0.707-0.792,1.31-1.829,1.819-3.12c0.509-1.282,0.792-2.451,0.849-3.506c0-0.255,0.019-0.481,0.056-0.688
	c0.019-0.075,0.028-0.141,0.038-0.189c0.01-0.056,0.019-0.103,0.019-0.141c0-0.255-0.179-0.387-0.528-0.387
	c-0.716,0-1.829,0.773-3.318,2.319c-0.943,0.999-1.829,2.168-2.658,3.534c-0.829,1.358-1.48,2.724-1.942,4.082
	c-0.462,1.367-0.688,2.592-0.688,3.676c0,1.065,0.264,1.602,0.801,1.602c0.518,0,1.81-0.867,3.893-2.602
	C228.315,59.729,229.851,58.551,231.963,57.023z M195.144,55.911l1.659-1.942c1.668-1.866,2.997-3.252,3.987-4.166
	c0.98-0.905,1.866-1.555,2.658-1.961c0.782-0.405,1.574-0.603,2.385-0.603c1.31,0,2.234,0.349,2.771,1.046
	c0.537,0.707,0.801,1.914,0.801,3.648c0,0.716-0.075,1.772-0.226,3.177c-0.226,1.857-0.339,3.61-0.339,5.25
	c0,1.838,0.094,3.328,0.273,4.468c0.132,0.698,0.321,1.405,0.584,2.102c0.179,0.66,0.273,1.112,0.273,1.348
	c0,0.302-0.113,0.528-0.33,0.698c-0.575,0.49-1.329,0.924-2.262,1.291c-0.943,0.368-1.734,0.556-2.375,0.556
	c-1.056,0-2.008-0.358-2.856-1.075c-0.858-0.726-1.527-1.715-1.989-2.988c-0.471-1.272-0.707-2.705-0.707-4.317
	c0-1.065,0.113-2.328,0.33-3.78l-0.113-0.113c-0.782,0.886-1.423,1.583-1.913,2.102c-0.49,0.509-0.943,0.999-1.367,1.461
	c-2.065,2.357-3.808,4.478-5.241,6.382c-0.556,0.735-1.056,1.376-1.518,1.932c-0.688,0.679-1.461,1.018-2.319,1.018
	c-1.178,0-2.14-0.443-2.875-1.329c-0.735-0.876-1.103-2.017-1.103-3.422c0-0.867,0.104-1.923,0.302-3.177
	c0.207-1.254,0.48-2.592,0.82-4.016c0.339-1.433,0.745-2.894,1.216-4.411c0.462-1.508,0.98-2.941,1.536-4.308
	c0.848-2.262,1.885-4.025,3.111-5.297c0.829-0.829,1.838-1.244,3.026-1.244c1.923,0,2.884,1.244,2.884,3.733
	c0,1.829-0.396,4.44-1.188,7.824L195.144,55.911z M176.538,42.941c-1.725-0.057-2.592-1.094-2.592-3.12
	c0-1.009,0.255-2.187,0.754-3.525c0.509-1.329,1.084-2.319,1.725-2.96c0.33-0.358,0.669-0.603,1.009-0.754
	c0.339-0.141,0.773-0.217,1.31-0.217c0.914,0,1.593,0.226,2.017,0.679c0.434,0.452,0.65,1.197,0.65,2.243
	c0,1.31-0.226,2.555-0.679,3.723c-0.443,1.169-1.046,2.111-1.8,2.837c-0.754,0.726-1.527,1.094-2.309,1.094H176.538z M173.22,70.767
	c-0.829-0.057-1.583-0.434-2.262-1.131c-0.679-0.735-1.159-1.536-1.452-2.394c-0.283-0.858-0.424-1.961-0.424-3.327
	c0-3.035,0.566-6.466,1.697-10.293c1.131-3.817,2.413-6.589,3.846-8.304c0.565-0.716,1.357-1.074,2.366-1.074
	c1.065,0,1.923,0.49,2.573,1.461c0.65,0.98,0.98,2.253,0.98,3.836c0,2.338-0.339,5.081-1.009,8.219
	c-0.669,3.148-1.602,6.41-2.818,9.803c-0.471,1.357-1.065,2.281-1.763,2.762c-0.471,0.292-1.037,0.443-1.678,0.443H173.22z
	 M155.169,45.222l0.273-1.131c0.575-2.517,1.084-4.562,1.546-6.118c0.462-1.555,0.933-2.875,1.423-3.95
	c0.49-1.084,0.971-1.857,1.452-2.337c0.773-0.83,2.159-1.244,4.166-1.244c0.886,0,1.536,0.047,1.97,0.141
	c0.433,0.085,0.782,0.255,1.037,0.49c-0.886,2.743-1.499,4.807-1.838,6.174c-0.339,1.376-0.716,3.252-1.122,5.646
	c-0.632,3.912-0.943,7.437-0.943,10.586c0,2.074,0.169,4.232,0.518,6.475c0.339,2.234,0.905,4.723,1.687,7.466
	c-0.98,0.688-1.913,1.263-2.809,1.744c-0.886,0.48-1.734,0.858-2.536,1.131c-0.801,0.273-1.508,0.415-2.121,0.415
	c-1.065,0-1.819-0.528-2.262-1.574c-0.368-0.867-0.613-1.555-0.716-2.083c-0.113-0.519-0.311-1.979-0.585-4.374
	c-2.469,2.583-4.826,4.609-7.088,6.089c-2.253,1.48-4.053,2.225-5.392,2.225c-1.546,0-2.818-0.632-3.799-1.895
	c-0.99-1.254-1.48-2.885-1.48-4.873c0-1.782,0.387-3.77,1.15-5.948c0.764-2.187,1.819-4.298,3.158-6.344
	c0.886-1.339,1.791-2.479,2.724-3.403c0.924-0.933,1.979-1.791,3.158-2.583c2.14-1.404,3.921-2.102,5.363-2.102
	C152.803,43.846,153.821,44.308,155.169,45.222z M154.311,58.324v-1.584c-0.943,0.829-1.64,1.245-2.102,1.245
	c-0.254,0-0.387-0.132-0.387-0.387c0-0.113,0.057-0.339,0.16-0.688c0.386-1.112,0.575-2.177,0.575-3.214
	c0-1.489-0.321-3.044-0.961-4.647c-0.273-0.83-0.613-1.244-1.018-1.244c-0.207,0-0.368,0.094-0.5,0.273
	c-0.603,0.707-1.178,1.697-1.734,2.979c-0.547,1.272-0.999,2.667-1.357,4.166c-0.358,1.508-0.537,2.837-0.537,3.997
	c0,2.196,0.66,3.29,1.989,3.29c0.66,0,1.546-0.396,2.658-1.178C152.209,60.549,153.284,59.54,154.311,58.324z M119.755,55.911
	l1.659-1.942c1.668-1.866,2.997-3.252,3.987-4.166c0.98-0.905,1.866-1.555,2.658-1.961c0.782-0.405,1.574-0.603,2.385-0.603
	c1.31,0,2.234,0.349,2.771,1.046c0.537,0.707,0.801,1.914,0.801,3.648c0,0.716-0.075,1.772-0.226,3.177
	c-0.226,1.857-0.339,3.61-0.339,5.25c0,1.838,0.094,3.328,0.273,4.468c0.132,0.698,0.321,1.405,0.585,2.102
	c0.179,0.66,0.273,1.112,0.273,1.348c0,0.302-0.113,0.528-0.33,0.698c-0.575,0.49-1.329,0.924-2.262,1.291
	c-0.943,0.368-1.734,0.556-2.375,0.556c-1.056,0-2.008-0.358-2.856-1.075c-0.858-0.726-1.527-1.715-1.989-2.988
	c-0.471-1.272-0.707-2.705-0.707-4.317c0-1.065,0.113-2.328,0.33-3.78l-0.113-0.113c-0.782,0.886-1.423,1.583-1.913,2.102
	c-0.49,0.509-0.943,0.999-1.367,1.461c-2.065,2.357-3.808,4.478-5.241,6.382c-0.556,0.735-1.056,1.376-1.518,1.932
	c-0.688,0.679-1.461,1.018-2.319,1.018c-1.178,0-2.14-0.443-2.875-1.329c-0.735-0.876-1.103-2.017-1.103-3.422
	c0-0.867,0.104-1.923,0.302-3.177c0.207-1.254,0.48-2.592,0.82-4.016c0.339-1.433,0.745-2.894,1.216-4.411
	c0.462-1.508,0.98-2.941,1.536-4.308c0.848-2.262,1.885-4.025,3.111-5.297c0.829-0.829,1.838-1.244,3.026-1.244
	c1.923,0,2.884,1.244,2.884,3.733c0,1.829-0.396,4.44-1.188,7.824L119.755,55.911z M93.353,62.83
	c0.207,1.103,0.924,1.659,2.159,1.659c1.376,0,3.167-0.811,5.382-2.432c1.282-0.943,2.149-1.414,2.592-1.414
	c0.547,0,1.065,0.151,1.546,0.443c0.481,0.292,0.716,0.594,0.716,0.914c0,0.33-0.264,0.764-0.801,1.301
	c-0.971,0.971-2.102,1.923-3.365,2.856c-1.273,0.933-2.498,1.706-3.676,2.319c-1.178,0.622-2.356,1.112-3.535,1.471
	c-1.178,0.358-2.225,0.537-3.148,0.537c-2.3,0-4.138-0.66-5.514-1.979c-1.386-1.32-2.074-3.073-2.074-5.269
	c0-1.678,0.368-3.572,1.093-5.684c0.726-2.111,1.706-4.091,2.941-5.938c1.452-2.158,3.242-3.95,5.354-5.392
	c2.62-1.734,5.118-2.602,7.513-2.602c1.734,0,3.092,0.547,4.072,1.65c0.99,1.094,1.48,2.602,1.48,4.525
	c0,1.489-0.387,3.054-1.169,4.675c-0.782,1.621-1.942,3.186-3.469,4.675c-1.254,1.254-2.479,2.234-3.686,2.931
	c-1.206,0.707-2.262,1.056-3.167,1.056C94.192,63.132,93.777,63.028,93.353,62.83z M93.296,61.944
	c0.848-0.575,1.499-1.15,1.932-1.715c0.98-1.207,1.734-2.583,2.272-4.138c0.415-1.018,0.754-2.149,0.99-3.412
	c0.236-1.254,0.358-2.432,0.358-3.516c0-1.018-0.207-1.527-0.632-1.527c-0.594,0-1.489,1.301-2.705,3.912
	c-0.717,1.574-1.301,3.139-1.753,4.694c-0.453,1.565-0.679,2.913-0.679,4.034C93.079,60.671,93.155,61.218,93.296,61.944z
	 M83.416,45.196C76.918,96.432,7.993,94.466,0.6,48.327C-6.812,2.072,56.476-19.22,78.599,21.93
	C82.798,29.741,83.767,36.467,83.416,45.196z"/>
</svg>
